<svg width="4400" height="2475" xmlns="http://www.w3.org/2000/svg" xmlns:xlink="http://www.w3.org/1999/xlink" overflow="hidden"><defs><clipPath id="clip0"><rect x="0" y="0" width="4400" height="2475"/></clipPath><clipPath id="clip1"><rect x="774" y="617" width="2852" height="1241"/></clipPath><clipPath id="clip2"><rect x="774" y="617" width="2852" height="1241"/></clipPath><clipPath id="clip3"><rect x="774" y="617" width="2852" height="1241"/></clipPath></defs><g clip-path="url(#clip0)"><rect x="0" y="0" width="4400" height="2475" fill="#FFFFFF"/><g clip-path="url(#clip1)"><g clip-path="url(#clip2)"><g clip-path="url(#clip3)"><path d="M664.974 273.378 664.974 1095.36C664.974 1174.79 616.948 1230.2 546.756 1230.2 476.565 1230.2 421.15 1176.63 421.15 1099.05L421.15 271.531 378.666 271.531C291.85 271.531 205.034 273.378 120.065 271.531 52.1708 268.972-0.793925 211.859 1.76479 143.965 4.13479 81.0783 53.5833 30.1199 116.37 25.8601L1014.09 25.8601C1108.29 25.8601 1137.84 48.0259 1169.25 138.536 1235.74 326.946 1302.24 513.508 1370.59 701.917 1374.28 713 1379.82 724.083 1387.21 744.401 1403.83 700.07 1416.76 663.127 1429.69 626.184L1612.56 116.37C1636.57 51.7202 1690.14 16.6243 1749.25 27.7073 1830.53 42.4845 1869.32 118.218 1839.76 203.187 1754.79 441.469 1667.98 683.445 1581.16 925.422 1557.15 995.614 1531.29 1063.96 1507.27 1134.15 1485.11 1196.95 1440.78 1232.05 1383.52 1230.2 1326.25 1228.35 1287.46 1196.95 1265.3 1134.15 1167.4 858.925 1067.65 581.852 969.754 306.627 960.518 278.92 947.588 269.684 919.881 271.531 847.842 273.378 775.803 271.531 705.611 271.531 692.681 271.531 679.751 273.378 664.974 273.378" fill="#FF0000" transform="matrix(1 0 0 1.00016 772.153 621.379)"/><path d="M2127.92 1224.66 1885.94 1224.66 1885.94 31.4016 2120.53 31.4016 2120.53 140.383C2130.44 133.189 2139.71 125.155 2148.24 116.37 2305.24-33.2487 2537.98-16.6243 2676.52 53.5674 2783.66 108.982 2827.99 210.575 2846.46 326.946 2852.6 374.093 2855.07 421.646 2853.85 469.176L2853.85 1224.66 2610.02 1224.66 2610.02 465.482C2610.02 443.316 2608.18 422.997 2606.33 400.832 2586.01 271.531 2502.89 212.422 2377.28 234.588 2218.43 264.142 2131.61 376.819 2131.61 552.298L2131.61 1182.18C2128.56 1196.12 2127.32 1210.4 2127.92 1224.66" fill="#FF0000" transform="matrix(1 0 0 1.00016 772.153 621.379)"/><path d="M2000.46 1119.19 2129.76 1119.19 2129.76 1223.18 2000.46 1223.18Z" fill="#FF0000" transform="matrix(1 0 0 1.00016 774 623.041)"/></g></g></g></g></svg>